<svg width="120" height="37" viewBox="0 0 120 37" fill="none" xmlns="http://www.w3.org/2000/svg">
<path fill-rule="evenodd" clip-rule="evenodd" d="M74.4426 28.9761C67.4952 34.0675 57.39 36.7801 48.6742 36.7801C36.4637 36.7801 25.5163 32.3147 17.1795 24.8863C16.5479 24.302 17.0952 23.5091 17.8952 23.9682C26.8637 29.143 37.9373 32.2312 49.39 32.2312C57.0952 32.2312 65.6005 30.6454 73.4321 27.3485C74.611 26.8895 75.5795 28.1414 74.4426 28.9761Z" fill="#C8CEDD"/>
<path fill-rule="evenodd" clip-rule="evenodd" d="M77.3468 25.6793C76.4626 24.5525 71.4521 25.1368 69.2205 25.4289C68.5468 25.5124 68.4205 24.9281 69.0521 24.5108C73.0521 21.7147 79.5784 22.5494 80.3363 23.4675C81.0942 24.3856 80.1258 30.8959 76.3784 33.9841C75.7889 34.4432 75.2416 34.1928 75.4942 33.5668C76.3363 31.4802 78.231 26.8478 77.3468 25.6793Z" fill="#C8CEDD"/>
<path fill-rule="evenodd" clip-rule="evenodd" d="M69.3474 4.89653L69.3474 2.18391C69.3474 1.76658 69.6421 1.51618 70.021 1.51618L82.2316 1.51619C82.6105 1.51619 82.9474 1.80832 82.9474 2.18391L82.9474 4.47921C82.9474 4.8548 82.6105 5.35559 82.021 6.19025L75.7053 15.121C78.0632 15.0793 80.5474 15.4132 82.6526 16.5817C83.1158 16.8321 83.2421 17.2494 83.2842 17.625L83.2842 20.5045C83.2842 20.9219 82.8632 21.3809 82.4 21.1305C78.6526 19.1691 73.6421 18.9604 69.5158 21.1723C69.0947 21.3809 68.6316 20.9636 68.6316 20.5463L68.6316 17.7919C68.6316 17.3746 68.6316 16.6234 69.0947 15.9557L76.4211 5.56426L70.0632 5.56425C69.6842 5.56425 69.3474 5.27212 69.3474 4.89653ZM24.8421 21.7148L21.1368 21.7148C20.8 21.673 20.5053 21.4226 20.4632 21.0888L20.4632 2.22562C20.4632 1.85003 20.8 1.5579 21.1789 1.5579L24.6316 1.5579C25.0105 1.5579 25.2632 1.85003 25.3053 2.18389L25.3053 4.64611L25.3895 4.64611C26.2737 2.26735 28 1.14057 30.2737 1.14057C32.5895 1.14057 34.0632 2.26735 35.0737 4.64612C35.9579 2.26735 38.0211 1.14058 40.2105 1.14058C41.7684 1.14058 43.4526 1.76657 44.5053 3.22721C45.6842 4.81305 45.4316 7.10835 45.4316 9.15325L45.4316 21.0888C45.4316 21.4644 45.0947 21.7565 44.7158 21.7565L41.0526 21.7565C40.6737 21.7148 40.3789 21.4226 40.3789 21.0888L40.3789 11.0729C40.3789 10.28 40.4632 8.27686 40.2947 7.52567C40 6.27369 39.2 5.8981 38.1053 5.8981C37.2211 5.8981 36.2526 6.48236 35.8737 7.44221C35.4947 8.40206 35.5368 9.98789 35.5368 11.0729L35.5368 21.0888C35.5368 21.4644 35.2 21.7565 34.8211 21.7565L31.1158 21.7565C30.7368 21.7148 30.4421 21.4226 30.4421 21.0888L30.4421 11.0729C30.4421 8.98631 30.7789 5.85636 28.1684 5.85636C25.5158 5.85636 25.6 8.86111 25.6 11.0729L25.6 21.0888C25.5579 21.4226 25.2632 21.7148 24.8421 21.7148ZM93.4737 1.1406C98.9895 1.1406 101.979 5.81466 101.979 11.7824C101.979 17.5415 98.6947 22.1321 93.4737 22.1321C88.0842 22.1321 85.1368 17.4581 85.1368 11.6155C85.0947 5.73119 88.0842 1.1406 93.4737 1.1406ZM93.4737 5.02173C90.7368 5.02173 90.5684 8.73595 90.5684 11.0312C90.5684 13.3265 90.5263 18.251 93.4316 18.251C96.2947 18.251 96.4632 14.2864 96.4632 11.8659C96.4632 10.2801 96.3789 8.36035 95.9158 6.85798C95.4947 5.52253 94.6526 5.02173 93.4737 5.02173ZM109.095 21.7148L105.389 21.7148C105.011 21.6731 104.716 21.3809 104.716 21.0471L104.716 2.14218C104.758 1.80832 105.053 1.5162 105.432 1.5162L108.884 1.5162C109.221 1.5162 109.474 1.7666 109.558 2.05873L109.558 4.93828L109.642 4.93828C110.695 2.35086 112.126 1.14061 114.695 1.14061C116.337 1.14061 117.979 1.72486 119.032 3.35243C120 4.85481 120 7.4005 120 9.23674L120 21.1305C119.958 21.4644 119.663 21.7148 119.284 21.7148L115.579 21.7148C115.242 21.6731 114.947 21.4227 114.905 21.1305L114.905 10.8643C114.905 8.77768 115.158 5.77293 112.589 5.77293C111.705 5.77293 110.863 6.35719 110.442 7.27531C109.937 8.44382 109.853 9.5706 109.853 10.8643L109.853 21.0471C109.811 21.4227 109.474 21.7148 109.095 21.7148ZM59.6211 12.7005C59.6211 14.1194 59.6632 15.3297 58.9474 16.6234C58.3579 17.6667 57.4316 18.2927 56.3789 18.2927C54.9474 18.2927 54.1053 17.2077 54.1053 15.6218C54.1053 12.4919 56.9263 11.9076 59.6211 11.9076L59.6211 12.7005ZM63.3684 21.6731C63.1158 21.8817 62.7789 21.9234 62.4842 21.7565C61.2632 20.7549 61.0105 20.2541 60.3368 19.2943C58.3158 21.3392 56.8421 21.9652 54.2316 21.9652C51.1158 21.9652 48.6737 20.0455 48.6737 16.2478C48.6737 13.2431 50.3158 11.2399 52.6316 10.2383C54.6526 9.36191 57.4737 9.19499 59.6211 8.9446L59.6211 8.48553C59.6211 7.60915 59.7053 6.56583 59.1579 5.81465C58.6947 5.14692 57.8526 4.85479 57.0947 4.85479C55.6632 4.85479 54.4 5.56425 54.1053 7.06662C54.0211 7.40049 53.8105 7.73434 53.4737 7.73434L49.8947 7.35874C49.6 7.27528 49.2632 7.06662 49.3474 6.60756C50.1895 2.26737 54.1053 0.973655 57.6421 0.973656C59.4526 0.973657 61.8105 1.43271 63.2421 2.80989C65.0526 4.4792 64.8842 6.73277 64.8842 9.15326L64.8842 14.8706C64.8842 16.5817 65.6 17.3329 66.2737 18.2927C66.5263 18.6266 66.5684 19.0439 66.2737 19.2526C65.4737 19.8785 64.1263 21.0471 63.3684 21.6731ZM10.9895 12.7005C10.9895 14.1194 11.0316 15.3297 10.3158 16.6234C9.72631 17.6667 8.8 18.2927 7.74736 18.2927C6.31579 18.2927 5.47368 17.2076 5.47368 15.6218C5.47368 12.4918 8.29474 11.9076 10.9895 11.9076L10.9895 12.7005ZM14.6947 21.673C14.4421 21.8817 14.1053 21.9234 13.8105 21.7565C12.5895 20.7549 12.3368 20.2541 11.6632 19.2943C9.6421 21.3392 8.16842 21.9652 5.55789 21.9652C2.4421 21.9651 -1.42714e-06 20.0455 -1.14296e-06 16.2478C-9.18118e-07 13.243 1.6421 11.2399 3.95789 10.2383C5.97894 9.36189 8.8 9.19497 10.9474 8.94458L10.9474 8.48551C10.9474 7.60913 11.0316 6.56581 10.4842 5.81463C10.0211 5.1469 9.17895 4.85477 8.42105 4.85477C6.98947 4.85477 5.72631 5.56423 5.43158 7.0666C5.34737 7.40047 5.13684 7.73432 4.8 7.73432L1.22105 7.35872C0.926313 7.27526 0.589476 7.0666 0.673686 6.60754C1.51579 2.26735 5.43158 0.973635 8.96842 0.973636C10.7789 0.973637 13.1368 1.43269 14.5684 2.80987C16.3789 4.47918 16.2105 6.73275 16.2105 9.15324L16.2105 14.8706C16.2105 16.5816 16.9263 17.3328 17.6 18.2927C17.8526 18.6266 17.8947 19.0439 17.6 19.2525C16.8 19.8785 15.4526 21.047 14.6947 21.673Z" fill="#C8CEDD"/>
</svg>
