<svg width="120" height="40" viewBox="0 0 120 40" fill="none" xmlns="http://www.w3.org/2000/svg">
<g clip-path="url(#clip0)">
<path d="M14.7791 0.98584H15.8462C19.5509 1.06564 23.1952 2.54201 25.8127 5.15558C24.8462 6.13317 23.8596 7.07087 22.9133 8.04846C21.4435 6.7317 19.6717 5.7142 17.7388 5.35509C14.8798 4.75656 11.7992 5.29523 9.40327 6.91126C6.78582 8.60708 5.01401 11.48 4.63146 14.5525C4.20864 17.585 5.07441 20.7771 7.0677 23.1313C8.98045 25.4257 11.8999 26.8622 14.9201 26.9619C17.7388 27.1215 20.6784 26.2636 22.7321 24.3084C24.3429 22.9318 25.0878 20.837 25.3294 18.802C21.9872 18.802 18.6449 18.8219 15.3026 18.802V14.6921H29.3764C30.1013 19.1013 29.0543 24.069 25.6717 27.2213C23.4167 29.4558 20.2959 30.7725 17.1147 31.0319C14.0341 31.3312 10.8529 30.7526 8.11468 29.2762C4.8328 27.5405 2.21535 24.6077 0.926761 21.1562C-0.281293 17.984 -0.301428 14.3928 0.826089 11.2007C1.85294 8.28787 3.82609 5.7142 6.363 3.91862C8.79924 2.14299 11.759 1.1654 14.7791 0.98584Z" fill="#C8CEDD"/>
<path d="M95.5176 2.02344H99.8263V30.5133C98.3968 30.5133 96.9471 30.5333 95.5176 30.4934C95.5377 21.0167 95.5176 11.5201 95.5176 2.02344Z" fill="#C8CEDD"/>
<path d="M38.9604 11.8991C41.6181 11.4004 44.4973 11.959 46.692 13.5351C48.6852 14.9317 50.0745 17.1263 50.4973 19.5204C51.041 22.2936 50.3564 25.3261 48.5443 27.5207C46.5913 29.9747 43.3899 31.2914 40.2691 31.0919C37.4101 30.9323 34.6316 29.5158 32.9403 27.2015C31.0275 24.6478 30.5644 21.1364 31.6114 18.1438C32.6584 14.9317 35.6181 12.4777 38.9604 11.8991ZM39.5644 15.6898C38.4772 15.9691 37.4705 16.5876 36.7457 17.4654C34.7926 19.7798 34.9134 23.5505 37.0678 25.7052C38.296 26.9421 40.1483 27.5207 41.8597 27.1815C43.4504 26.9022 44.8396 25.8448 45.6047 24.4483C46.9336 22.0741 46.551 18.8022 44.5175 16.9467C43.2087 15.7497 41.296 15.2509 39.5644 15.6898Z" fill="#C8CEDD"/>
<path d="M60.3017 11.8992C63.342 11.3206 66.6642 12.1585 68.9393 14.2733C72.644 17.5652 73.0467 23.73 69.8856 27.5207C67.9729 29.9148 64.8722 31.2316 61.8118 31.0919C58.8923 31.0121 56.0132 29.5756 54.2816 27.2015C52.3286 24.5879 51.9058 20.9968 53.0132 17.9443C54.1205 14.8319 57.0199 12.4578 60.3017 11.8992ZM60.9058 15.6898C59.8185 15.9691 58.8118 16.5876 58.087 17.4455C56.1541 19.7199 56.2346 23.4308 58.3085 25.6054C59.5366 26.9022 61.4494 27.5407 63.2212 27.1815C64.7917 26.8823 66.2011 25.8448 66.9662 24.4483C68.2749 22.0542 67.8923 18.7822 65.8387 16.9268C64.5299 15.7297 62.6172 15.2509 60.9058 15.6898Z" fill="#C8CEDD"/>
<path d="M78.4028 13.0559C80.7182 11.6195 83.7988 11.2205 86.2954 12.4574C87.0806 12.7966 87.7249 13.3752 88.3491 13.9537C88.3692 13.4151 88.3491 12.8564 88.3692 12.2978C89.7182 12.3178 91.0672 12.2978 92.4363 12.3178V29.9145C92.4162 32.5679 91.7316 35.381 89.7988 37.3162C87.6847 39.451 84.4431 40.1094 81.5236 39.6705C78.4028 39.2116 75.6847 36.9571 74.4766 34.1042C75.6847 33.5256 76.9531 33.0667 78.2015 32.528C78.9062 34.164 80.3357 35.5606 82.1276 35.8798C83.9196 36.199 85.9934 35.7601 87.1612 34.2837C88.4095 32.7674 88.4095 30.6925 88.3491 28.8371C87.4229 29.7349 86.3558 30.5329 85.0672 30.8322C82.2686 31.6103 79.188 30.6526 77.0337 28.7773C74.8592 26.9019 73.5706 24.009 73.6914 21.1361C73.7518 17.8841 75.6041 14.7518 78.4028 13.0559ZM82.5706 15.6097C81.3424 15.8092 80.1947 16.4875 79.4095 17.4252C77.5169 19.6597 77.5169 23.2309 79.4296 25.4255C80.5169 26.7223 82.2686 27.4405 83.9598 27.261C85.5504 27.1014 87.0202 26.1038 87.8055 24.7272C89.1343 22.393 88.9129 19.2208 87.1209 17.1858C86.0135 15.9289 84.2417 15.3104 82.5706 15.6097Z" fill="#C8CEDD"/>
<path d="M105 14.0737C107.416 11.8392 111.141 11.0811 114.242 12.2582C117.181 13.3555 119.054 16.1286 120 18.9816C115.631 20.7772 111.282 22.5528 106.913 24.3484C107.517 25.4856 108.443 26.5231 109.691 26.942C111.443 27.5605 113.537 27.341 115.007 26.1839C115.591 25.745 116.054 25.1664 116.497 24.6078C117.604 25.3459 118.711 26.0642 119.819 26.8024C118.248 29.1366 115.611 30.7726 112.772 31.032C109.631 31.411 106.289 30.214 104.255 27.78C100.913 23.9494 101.235 17.5252 105 14.0737ZM107.154 17.7646C106.47 18.7422 106.188 19.9393 106.208 21.1164C109.128 19.9193 112.047 18.7222 114.966 17.5052C114.483 16.388 113.315 15.7097 112.128 15.5301C110.215 15.1909 108.222 16.2084 107.154 17.7646Z" fill="#C8CEDD"/>
</g>
<defs>
<clipPath id="clip0">
<rect width="120" height="38.8114" fill="white" transform="translate(0 0.982422)"/>
</clipPath>
</defs>
</svg>
