<svg width="110" height="42" viewBox="0 0 110 42" fill="none" xmlns="http://www.w3.org/2000/svg">
<path d="M87.5411 13.2286V0.000976562H90.2774V11.3718C89.5197 11.7473 88.4883 12.4567 87.5411 13.2286ZM82.7841 17.2136C83.6261 16.2122 84.4891 15.2107 85.5205 14.3553V0.000976562H82.7841V17.2136ZM51.0849 27.729C51.0849 31.255 52.4952 34.614 55.0842 37.1803C57.6521 39.7257 61.0409 41.1444 64.6192 41.1444C66.1347 41.1444 67.6923 40.8315 68.7868 40.289V37.5767C67.5029 38.1192 65.9453 38.4321 64.6192 38.4321C58.7677 38.4321 53.8423 33.55 53.8423 27.7498V25.3088C53.8423 19.5086 58.7887 14.6265 64.6192 14.6265C67.5239 14.6265 70.2392 15.7323 72.2598 17.7352C74.2805 19.7381 75.3961 22.4296 75.3961 25.3088V41.1653H78.1324V24.7872C77.964 21.3238 76.4696 18.0899 73.9437 15.6697C71.3969 13.2495 68.0922 11.9142 64.6192 11.9142C61.062 11.9142 57.6732 13.3121 55.0842 15.8783C52.5163 18.4237 51.0849 21.7828 51.0849 25.3296V27.729ZM92.0455 21.2195C93.2874 19.9885 94.8871 19.3 96.4657 19.3C99.8546 19.3 102.486 21.9288 102.486 25.2671V27.7081C102.486 31.0672 99.8335 33.6752 96.4657 33.6752C94.8239 33.6752 93.2453 32.778 92.0034 31.1715C90.9089 29.7528 90.1933 27.8124 90.088 26.0807L87.8779 28.793C88.3199 30.8377 89.3934 32.8198 90.9299 34.1968C92.5086 35.6155 94.4872 36.4083 96.4657 36.4083C101.307 36.4083 105.243 32.5068 105.243 27.729V25.2879C105.243 23.0138 104.317 20.8439 102.633 19.1957C100.949 17.5266 98.76 16.6086 96.4657 16.6086C95.0134 16.6086 92.7191 17.1302 89.9828 19.5712C89.2461 20.3015 87.5201 22.0123 86.4676 23.2224C84.6996 25.1419 82.1527 28.0002 79.9636 30.9003V35.1356C82.3842 32.0478 83.7734 30.3161 86.0677 27.7081C88.0884 25.3296 90.6142 22.4713 92.0455 21.2195ZM27.3842 16.1078V12.8948C24.9005 11.5804 22.2063 10.9962 18.628 10.9962C14.9656 10.9962 11.4925 12.3315 8.86146 14.7308C6.20934 17.151 4.75698 20.3223 4.75698 23.7023V24.5785C4.75698 31.5888 10.4191 37.2846 17.4072 37.2846C23.0693 37.2846 25.4057 35.4486 25.995 34.8644V26.7067H16.7336V29.419H23.4271V33.5083H23.406C22.543 33.8421 20.7539 34.5515 17.4072 34.5515C14.7551 34.5515 12.2503 33.5291 10.398 31.6514C8.52468 29.7736 7.51435 27.27 7.51435 24.5577V23.6814C7.51435 18.2777 12.6081 13.6876 18.6491 13.6876C22.7956 13.7085 25.2794 14.397 27.3842 16.1078ZM47.3383 19.3C48.3697 19.3 49.2537 19.4669 49.9694 19.8007C50.3062 18.9662 50.664 18.2568 51.1691 17.4223C50.4324 16.9007 48.6433 16.5668 47.3383 16.5668C42.3498 16.5668 38.5821 20.3015 38.5821 25.2671V41.1236H41.3184V25.2671C41.3184 21.7619 43.7811 19.3 47.3383 19.3ZM0 23.7023V24.5785C0 29.2938 1.81018 33.6752 5.07271 36.9508C8.33525 40.2055 12.7134 41.9998 17.3861 41.9998C21.1538 41.9998 24.4795 41.1653 27.3 39.4962C29.6154 38.1192 30.6468 36.7422 30.731 36.617V22.0123H16.7336V24.7246H27.9946V35.8033C26.6686 37.1177 23.5323 39.3084 17.4072 39.3084C13.408 39.3084 9.7034 37.7853 6.96709 35.0313C4.25182 32.2982 2.75737 28.5844 2.75737 24.5994V23.7231C2.75737 19.9468 4.4623 16.1913 7.4512 13.4164C10.5033 10.5789 14.4814 9.01414 18.6491 9.01414C22.543 9.01414 25.2373 9.59833 27.4053 10.9128V7.84577C25.132 6.88603 22.4168 6.46876 18.628 6.46876C8.52468 6.46876 0 14.3553 0 23.7023ZM73.3544 41.1236V25.2671C73.3544 20.3849 69.5025 16.5668 64.5771 16.5668C62.2828 16.5668 60.0938 17.4849 58.4099 19.154C56.726 20.8231 55.7998 22.9929 55.7998 25.2462V27.6873C55.7998 32.4025 59.8201 36.3666 64.5561 36.3666C65.8611 36.3666 67.6292 36.0536 68.7237 35.1565V32.3399C67.6502 33.1953 66.1137 33.696 64.5561 33.696C61.1883 33.696 58.5362 31.0672 58.5362 27.729V25.2879C58.5362 21.9288 61.1883 19.3209 64.5561 19.3209C67.9449 19.3209 70.576 21.9497 70.576 25.2879V41.1444H73.3544V41.1236ZM47.3383 14.5848C49.1906 14.5848 50.8113 14.9812 52.2637 15.7949C52.9372 14.9395 53.6318 14.2718 54.158 13.7502C52.6215 12.5819 50.0115 11.8725 47.3593 11.8725C43.5496 11.8725 40.0976 13.2286 37.6349 15.7114C35.1933 18.1525 33.8461 21.5533 33.8461 25.2879V41.1444H36.5825V25.2879C36.5614 18.987 40.9816 14.5848 47.3383 14.5848ZM106.001 15.8366C103.433 13.2912 100.044 11.8725 96.4657 11.8725C93.8557 11.8725 91.2457 12.8322 89.7933 13.792C86.8044 15.7532 84.3628 17.9021 79.9426 23.5562V27.6247C83.6892 22.7843 87.2254 18.987 89.9196 16.8798C91.6877 15.4819 94.1925 14.6056 96.4657 14.6056C102.317 14.6056 107.243 19.5086 107.243 25.2879V27.729C107.243 30.5873 106.106 33.2788 104.043 35.3025C102.002 37.3055 99.3073 38.4113 96.4657 38.4113C91.6666 38.4113 87.4359 35.1356 86.2993 30.6916L84.3628 33.0075C85.773 37.681 90.8668 41.1236 96.4657 41.1236C100.044 41.1236 103.412 39.7048 106.001 37.1594C108.569 34.5932 110 31.255 110 27.7081V25.2671C110 21.7411 108.569 18.382 106.001 15.8366Z" fill="#C8CEDD"/>
</svg>
