<svg width="120" height="33" viewBox="0 0 120 33" fill="none" xmlns="http://www.w3.org/2000/svg">
<g clip-path="url(#clip0)">
<path d="M113.581 16.1639L120 32.871C118.108 32.6054 116.217 32.2727 114.292 31.9729L110.676 22.7416L106.96 31.2109C105.136 30.9112 103.345 30.8113 101.521 30.5786L108.041 15.9653L102.128 0.987305H107.601L110.911 9.35573L114.459 0.987305H119.999L113.581 16.1639ZM97.8055 0.987305H92.839V29.9483C94.4607 30.0483 96.1492 30.1141 97.8055 30.3128V0.987305ZM88.5482 29.6157C84.0218 29.317 79.4941 29.0525 74.866 28.9515V0.987433H79.9331V24.2358C82.839 24.3017 85.7438 24.5335 88.5482 24.6663V29.6157ZM69.4595 12.3134V17.2947H62.5342V28.6198H57.5353V0.987305H71.7244V5.96858H62.5352V12.3135H69.4605L69.4595 12.3134ZM49.0206 5.96858V28.8855C47.3309 28.8855 45.6088 28.8855 43.9525 28.9515V5.96858H38.7159V0.987305H54.2897V5.96858H49.0206ZM33.2435 17.5594C31.0142 17.5594 28.3785 17.5594 26.4866 17.6604V25.0658C29.4596 24.8661 32.4325 24.6343 35.4389 24.5345V29.317L21.4196 30.4138V0.987305H35.438V5.96858H26.4865V12.678C28.4465 12.678 31.453 12.5781 33.2432 12.5781V17.5604L33.2435 17.5594ZM5.16764 14.7695V32.1727C3.34494 32.3725 1.7222 32.6052 0 32.871V0.987305H4.83142L11.4186 19.0889V0.987305H16.4866V30.8113C14.6963 31.1111 12.8715 31.2109 10.9461 31.4756L5.16764 14.7695Z" fill="#C8CEDD"/>
</g>
<defs>
<clipPath id="clip0">
<rect width="120" height="31.9462" fill="white" transform="translate(0 0.955566)"/>
</clipPath>
</defs>
</svg>
