<svg width="150" height="32" viewBox="0 0 150 32" fill="none" xmlns="http://www.w3.org/2000/svg">
<g clip-path="url(#clip0)">
<path d="M24.3503 0.946777H30.1192V19.095C30.1192 28.6434 23.9679 31.9949 15.0437 31.9949C6.15133 31.9949 0 28.6434 0 19.095V1.67397C0 1.1681 0.254977 0.946777 0.764932 0.946777H6.5338V18.8105C6.5338 24.5332 9.08357 26.9045 15.0437 26.9045C21.0356 26.9045 23.5854 24.5332 23.5854 18.8105V1.67397C23.5854 1.1681 23.8404 0.946777 24.3503 0.946777ZM89.6564 5.91068V13.562H104.254C104.509 13.562 104.604 13.6885 104.509 13.9414L102.915 17.862C102.756 18.2098 102.533 18.3679 102.055 18.3679H93.4811C90.6763 18.3679 89.6564 19.2215 89.6564 21.0869V26.4935H109.417C109.672 26.4935 109.768 26.6199 109.672 26.8729L108.015 30.9515C107.855 31.2993 107.632 31.4574 107.154 31.4574H85.513C83.8557 31.4574 83.2182 30.8883 83.2182 29.6552V3.06513C83.2182 1.57912 84.0469 0.946777 86.2142 0.946777H109.417C109.672 0.946777 109.768 1.07325 109.672 1.29457L108.015 5.4048C107.855 5.75259 107.632 5.91068 107.154 5.91068H89.6564ZM71.3299 23.0156C71.3299 29.1177 66.9953 31.4574 60.9077 31.4574H44.7804C43.0912 31.4574 42.4856 30.8883 42.4856 29.6552V3.06513C42.4856 1.57912 43.2824 0.946777 45.4816 0.946777H58.5811C64.318 0.946777 69.8638 1.92691 69.8638 8.69299C69.8638 11.6018 68.812 14.0679 66.2941 15.3642C69.7682 16.2811 71.3299 19.3796 71.3299 23.0156ZM48.8282 13.6569H59.0591C62.4376 13.6569 63.3937 12.3606 63.3937 9.70474C63.3937 7.0489 62.4376 5.78421 59.0591 5.78421H48.8282V13.6569ZM64.8599 22.4465C64.8599 19.6325 63.8718 18.2414 60.2384 18.2414H52.6847C49.8799 18.2414 48.8282 19.095 48.8282 20.9605V26.6199H60.2384C63.8718 26.6199 64.8599 25.2288 64.8599 22.4465ZM149.64 31.4574H143.775C143.297 31.4574 143.106 31.2677 142.915 30.9515L136.7 19.8222H130.995C128.19 19.8222 127.138 20.6759 127.138 22.5413V31.4574H121.529C121.019 31.4574 120.764 31.2044 120.764 30.7302V3.06513C120.764 1.57912 121.592 0.946777 123.76 0.946777H136.923C144.604 0.946777 149.226 2.93866 149.226 10.3371C149.226 16.0598 146.453 18.3046 143.01 19.1899L149.927 30.9199C150.054 31.1096 150.054 31.4574 149.64 31.4574ZM142.755 10.4636C142.755 7.36507 141.895 5.84744 137.879 5.84744H127.138V15.0797H137.879C141.895 15.0797 142.755 13.5937 142.755 10.4636Z" fill="#C8CEDD"/>
</g>
<defs>
<clipPath id="clip0">
<rect width="150" height="31.0481" fill="white" transform="translate(0 0.946777)"/>
</clipPath>
</defs>
</svg>
