<svg width="1440" height="700" viewBox="0 0 1440 700" fill="none" xmlns="http://www.w3.org/2000/svg">
<rect width="1440" height="700" fill="white"/>
<path d="M945.942 502.219L946.01 501.472C945.624 501.438 945.276 501.701 945.205 502.081C945.134 502.461 945.363 502.833 945.735 502.94L945.942 502.219ZM1009.93 471.04C1002.26 482.651 978.73 504.988 946.022 501.474L945.862 502.965C979.347 506.563 1003.35 483.728 1011.18 471.866L1009.93 471.04ZM945.735 502.94C947.306 503.392 949.731 504.449 951.831 506.131C953.93 507.812 955.63 510.056 955.934 512.88L957.425 512.72C957.064 509.357 955.047 506.785 952.769 504.96C950.491 503.136 947.88 501.996 946.149 501.499L945.735 502.94ZM945.874 502.966C948.673 503.22 954.442 501.24 957.311 492.417L955.885 491.953C953.195 500.225 947.998 501.653 946.01 501.472L945.874 502.966Z" fill="#CCCCE7"/>
<circle cx="1340" cy="317" r="7.5" stroke="#CBCBE6"/>
</svg>
