<svg width="1348" height="2230" viewBox="0 0 1348 2230" fill="none" xmlns="http://www.w3.org/2000/svg">
<circle cx="271" cy="1610" r="7.5" stroke="#CBCBE6"/>
<circle cx="1340" cy="1984" r="7.5" stroke="#CBCBE6"/>
<circle cx="940" cy="1634" r="5.5" stroke="#CBCBE6"/>
<circle cx="218" cy="2205" r="5.5" stroke="#CBCBE6"/>
<path d="M1025.94 2169.22L1026.01 2168.47C1025.62 2168.44 1025.28 2168.7 1025.2 2169.08C1025.13 2169.46 1025.36 2169.83 1025.73 2169.94L1025.94 2169.22ZM1089.93 2138.04C1082.26 2149.65 1058.73 2171.99 1026.02 2168.47L1025.86 2169.97C1059.35 2173.56 1083.35 2150.73 1091.18 2138.87L1089.93 2138.04ZM1025.73 2169.94C1027.31 2170.39 1029.73 2171.45 1031.83 2173.13C1033.93 2174.81 1035.63 2177.06 1035.93 2179.88L1037.43 2179.72C1037.06 2176.36 1035.05 2173.79 1032.77 2171.96C1030.49 2170.14 1027.88 2169 1026.15 2168.5L1025.73 2169.94ZM1025.87 2169.97C1028.67 2170.22 1034.44 2168.24 1037.31 2159.42L1035.88 2158.95C1033.19 2167.23 1028 2168.65 1026.01 2168.47L1025.87 2169.97Z" fill="#CCCCE7"/>
<path d="M877.809 2202.8L875.695 2209.76M873.458 2217.84L871.763 2225.08M878.418 2215.68L885.384 2217.8M870.341 2213.45L863.795 2211.6" stroke="#CBCBE6" stroke-linecap="round"/>
<path d="M1261.81 1613.8L1259.7 1620.76M1257.46 1628.84L1255.76 1636.08M1262.42 1626.68L1269.39 1628.8M1254.34 1624.45L1247.8 1622.6" stroke="#CBCBE6" stroke-linecap="round"/>
<path fill-rule="evenodd" clip-rule="evenodd" d="M-430.753 -61.2509C-457.635 -23.9627 -463.181 1.38834 -458.511 20.5965C-453.87 39.6859 -439.117 52.8595 -424.657 65.7721L-424.314 66.0788C-409.804 79.0367 -395.638 91.8002 -393.057 110.057C-390.474 128.333 -399.51 151.926 -430.788 186.534L-431.529 185.863C-400.293 151.3 -391.53 128.007 -394.047 110.197C-396.568 92.3664 -410.403 79.842 -424.98 66.8247L-425.429 66.4235C-439.809 53.5828 -454.768 40.2265 -459.483 20.8328C-464.255 1.20471 -458.514 -24.4541 -431.564 -61.8358C-404.636 -99.1876 -382.965 -118.865 -362.161 -126.553C-341.321 -134.254 -321.453 -129.888 -298.255 -119.449C-286.25 -114.046 -273.342 -107.016 -258.919 -99.1598C-217.58 -76.644 -163.799 -47.3506 -83.174 -30.1965C-28.7731 -18.6218 10.5997 -14.041 39.7081 -16.5848C68.7904 -19.1262 87.5882 -28.7745 100.906 -45.6458C114.251 -62.5525 122.138 -86.7637 129.255 -118.541C132.607 -133.51 135.785 -150.138 139.285 -168.452L139.287 -168.461L139.288 -168.465L139.929 -171.822C143.686 -191.469 147.839 -213.009 152.977 -236.459C169.456 -311.659 215.363 -352.299 266.038 -372.524C316.686 -392.739 372.093 -392.563 407.663 -386.184L407.486 -385.199C372.053 -391.554 316.844 -391.725 266.408 -371.596C215.999 -351.476 170.353 -311.079 153.954 -236.245C148.819 -212.809 144.668 -191.28 140.912 -171.634L140.268 -168.265C136.768 -149.954 133.587 -133.309 130.23 -118.323C123.112 -86.5371 115.189 -62.1261 101.691 -45.0262C88.1646 -27.8908 69.0849 -18.1481 39.7952 -15.5886C10.5317 -13.0313 -28.9619 -17.6396 -83.3821 -29.2183C-164.166 -46.4063 -218.148 -75.8097 -259.499 -98.3324L-259.499 -98.3326C-273.885 -106.168 -286.741 -113.171 -298.666 -118.537C-321.774 -128.936 -341.34 -133.18 -361.814 -125.615C-382.325 -118.035 -403.849 -98.5689 -430.753 -61.2509ZM-349.716 8.20935C-376.598 45.4976 -382.144 70.8486 -377.474 90.0568C-372.833 109.146 -358.08 122.32 -343.62 135.232L-343.277 135.539C-328.766 148.497 -314.601 161.26 -312.02 179.517C-309.437 197.794 -318.473 221.386 -349.75 255.994L-350.492 255.323C-319.256 220.76 -310.493 197.467 -313.01 179.657C-315.531 161.827 -329.366 149.302 -343.943 136.285L-344.392 135.884C-358.772 123.043 -373.731 109.687 -378.446 90.2931C-383.218 70.665 -377.477 45.0062 -350.527 7.62457C-323.599 -29.7273 -301.928 -49.4047 -281.124 -57.0922C-260.284 -64.7933 -240.416 -60.4276 -217.218 -49.9885C-205.213 -44.5861 -192.305 -37.5554 -177.882 -29.6995L-177.881 -29.6994C-136.543 -7.18355 -82.7614 22.1098 -2.13701 39.2638C52.2639 50.8385 91.6367 55.4193 120.745 52.8755C149.827 50.3341 168.625 40.6858 181.943 23.8145C195.288 6.90781 203.175 -17.3034 210.292 -49.0811C213.644 -64.0487 216.822 -80.6757 220.322 -98.9886L220.324 -98.9994L220.325 -99.0044L220.966 -102.362C224.723 -122.008 228.876 -143.549 234.014 -166.999C250.493 -242.199 296.4 -282.838 347.075 -303.064C397.723 -323.279 453.13 -323.103 488.7 -316.723L488.524 -315.739C453.09 -322.094 397.881 -322.265 347.445 -302.135C297.036 -282.016 251.39 -241.619 234.991 -166.784C229.856 -143.349 225.705 -121.82 221.949 -102.174L221.305 -98.8047C217.805 -80.4937 214.624 -63.8487 211.267 -48.8625C204.149 -17.0768 196.226 7.33426 182.728 24.4341C169.202 41.5695 150.122 51.3122 120.832 53.8717C91.5687 56.429 52.0751 51.8207 -2.34514 40.242C-83.1286 23.054 -137.111 -6.34938 -178.462 -28.8721L-178.464 -28.8737C-192.849 -36.7086 -205.705 -43.7109 -217.629 -49.0765C-240.737 -59.4755 -260.303 -63.72 -280.777 -56.1542C-301.288 -48.575 -322.812 -29.1086 -349.716 8.20935ZM-296.437 159.517C-301.107 140.309 -295.561 114.958 -268.679 77.6697C-241.775 40.3517 -220.251 20.8853 -199.74 13.306C-179.266 5.74028 -159.7 9.98482 -136.591 20.3837C-124.667 25.7497 -111.811 32.7524 -97.4252 40.5879L-97.4246 40.5882C-56.0743 63.1109 -2.09153 92.5143 78.6919 109.702C133.112 121.281 172.606 125.889 201.869 123.332C231.159 120.772 250.239 111.03 263.765 93.8944C277.263 76.7946 285.186 52.3835 292.305 20.5978C295.661 5.61157 298.842 -11.0334 302.342 -29.3444L302.986 -32.7134C306.742 -52.3597 310.893 -73.8885 316.028 -97.3242C332.427 -172.158 378.073 -212.556 428.482 -232.675C478.918 -252.805 534.127 -252.634 569.561 -246.279L569.737 -247.263C534.167 -253.642 478.761 -253.819 428.112 -233.604C377.437 -213.378 331.53 -172.738 315.051 -97.5382C309.913 -74.0882 305.76 -52.5479 302.003 -32.9012L301.362 -29.5441L301.361 -29.5404L301.36 -29.5337C297.859 -11.2185 294.681 5.41015 291.329 20.3792C284.212 52.1569 276.325 76.3681 262.98 93.2748C249.662 110.146 230.865 119.794 201.782 122.336C172.674 124.88 133.301 120.299 78.9 108.724C-1.72447 91.57 -55.5061 62.2767 -96.8446 39.7608C-111.268 31.905 -124.176 24.8742 -136.181 19.4718C-159.379 9.0327 -179.247 4.66704 -200.087 12.3681C-220.891 20.0557 -242.562 39.733 -269.49 77.0849C-296.44 114.466 -302.181 140.125 -297.409 159.753C-292.693 179.147 -277.735 192.503 -263.355 205.344L-262.906 205.745C-248.329 218.763 -234.494 231.287 -231.973 249.117C-229.456 266.927 -238.218 290.221 -269.455 324.784L-268.713 325.454C-237.436 290.846 -228.4 267.254 -230.983 248.977C-233.564 230.721 -247.729 217.957 -262.239 204.999L-262.583 204.693C-277.043 191.78 -291.796 178.607 -296.437 159.517ZM-187.642 147.13C-214.524 184.418 -220.07 209.769 -215.4 228.977C-210.759 248.067 -196.006 261.24 -181.546 274.153L-181.202 274.46C-166.692 287.418 -152.527 300.181 -149.946 318.438C-147.363 336.714 -156.399 360.307 -187.676 394.915L-188.418 394.244C-157.181 359.681 -148.419 336.388 -150.936 318.578C-153.457 300.747 -167.292 288.223 -181.869 275.206L-182.318 274.804C-196.698 261.964 -211.656 248.607 -216.372 229.214C-221.144 209.586 -215.403 183.927 -188.453 146.545C-161.525 109.193 -139.854 89.5159 -119.05 81.8284C-98.2096 74.1273 -78.3422 78.493 -55.1441 88.9321C-43.1389 94.3345 -30.2306 101.365 -15.8076 109.221L-15.8069 109.221C25.5315 131.737 79.313 161.03 159.937 178.184C214.338 189.759 253.711 194.34 282.819 191.796C311.902 189.255 330.699 179.606 344.017 162.735C357.362 145.828 365.249 121.617 372.366 89.8395C375.719 74.8688 378.897 58.238 382.398 39.9206L382.399 39.9162L383.04 36.559C386.797 16.9123 390.95 -4.62794 396.088 -28.0779C412.567 -103.278 458.474 -143.918 509.149 -164.143C559.797 -184.358 615.204 -184.182 650.774 -177.803L650.598 -176.818C615.164 -183.173 559.955 -183.344 509.519 -163.215C459.11 -143.095 413.464 -102.698 397.065 -27.8639C391.93 -4.42817 387.779 17.1005 384.023 36.7469L383.379 40.1159L383.378 40.1168L383.378 40.119L383.377 40.1233C379.878 58.4314 376.697 75.0739 373.342 90.0581C366.223 121.844 358.3 146.255 344.802 163.355C331.276 180.49 312.196 190.233 282.906 192.792C253.643 195.35 214.149 190.741 159.729 179.163C78.9455 161.975 24.9628 132.571 -16.3876 110.048C-30.7733 102.213 -43.63 95.21 -55.5544 89.844C-78.6632 79.4451 -98.229 75.2006 -118.703 82.7663C-139.214 90.3456 -160.738 109.812 -187.642 147.13ZM-134.363 298.438C-139.033 279.23 -133.487 253.879 -106.605 216.59C-79.7011 179.272 -58.1767 159.806 -37.6661 152.227C-17.192 144.661 2.37383 148.905 25.4826 159.304C37.4069 164.67 50.2635 171.673 64.6489 179.509L64.6494 179.509C106 202.032 159.983 231.435 240.766 248.623C295.186 260.202 334.68 264.81 363.943 262.253C393.233 259.693 412.313 249.95 425.839 232.815C439.337 215.715 447.26 191.304 454.379 159.518C457.735 144.534 460.915 127.891 464.415 109.582L464.416 109.577L464.416 109.576L465.06 106.207C468.816 86.5609 472.967 65.0322 478.102 41.5965C494.501 -33.2377 540.147 -73.6349 590.556 -93.7543C640.992 -113.884 696.201 -113.713 731.635 -107.358L731.811 -108.342C696.241 -114.722 640.834 -114.898 590.186 -94.6831C539.511 -74.4575 493.605 -33.8177 477.125 41.3824C471.987 64.8324 467.834 86.3726 464.077 106.019L463.436 109.377L463.435 109.38L463.434 109.389C459.933 127.703 456.755 144.331 453.403 159.3C446.286 191.078 438.399 215.289 425.054 232.195C411.736 249.067 392.939 258.715 363.856 261.256C334.748 263.8 295.375 259.219 240.974 247.645C160.35 230.491 106.568 201.197 65.2295 178.681C50.8064 170.826 37.8981 163.795 25.893 158.392C2.69485 147.953 -17.1726 143.588 -38.0128 151.289C-58.8166 158.976 -80.4878 178.654 -107.416 216.005C-134.365 253.387 -140.107 279.046 -135.335 298.674C-130.619 318.068 -115.661 331.424 -101.281 344.265L-100.831 344.666C-86.255 357.683 -72.4196 370.208 -69.8992 388.038C-67.3816 405.848 -76.1444 429.141 -107.381 463.704L-106.639 464.375C-75.362 429.767 -66.3256 406.175 -68.909 387.898C-71.4897 369.641 -85.6554 356.878 -100.165 343.92L-100.509 343.613C-114.969 330.701 -129.722 317.527 -134.363 298.438ZM-25.5677 286.051C-52.45 323.339 -57.996 348.69 -53.3259 367.898C-48.6847 386.987 -33.9321 400.161 -19.4718 413.074L-19.1284 413.38C-4.61837 426.338 9.54737 439.102 12.128 457.358C14.7115 475.635 5.67503 499.227 -25.6024 533.835L-26.3443 533.165C4.89262 498.602 13.6554 475.308 11.1379 457.498C8.61747 439.668 -5.21798 427.144 -19.7945 414.126L-20.2438 413.725C-34.6244 400.884 -49.5824 387.528 -54.2976 368.134C-59.0697 348.506 -53.3285 322.847 -26.3789 285.466C0.549192 248.114 22.2204 228.437 43.0243 220.749C63.8645 213.048 83.7319 217.414 106.93 227.853C118.935 233.255 131.843 240.286 146.267 248.142C187.605 270.658 241.387 299.951 322.011 317.105C376.412 328.68 415.785 333.26 444.893 330.717C473.976 328.175 492.773 318.527 506.091 301.656C519.436 284.749 527.323 260.538 534.44 228.76C537.792 213.791 540.97 197.162 544.471 178.847L544.473 178.837L545.115 175.48C548.871 155.833 553.024 134.293 558.162 110.843C574.641 35.6426 620.548 -4.99724 671.223 -25.2228C721.872 -45.4378 777.278 -45.2616 812.848 -38.8821L812.672 -37.8978C777.238 -44.2527 722.029 -44.4238 671.594 -24.294C621.184 -4.17467 575.538 36.2225 559.139 111.057C554.004 134.492 549.853 156.021 546.097 175.667L545.453 179.037C541.953 197.348 538.772 213.993 535.416 228.979C528.297 260.764 520.374 285.175 506.876 302.275C493.35 319.411 474.27 329.153 444.98 331.713C415.717 334.27 376.223 329.662 321.803 318.083C241.02 300.895 187.037 271.492 145.686 248.969L145.685 248.968C131.3 241.133 118.444 234.13 106.52 228.765C83.4109 218.366 63.8451 214.121 43.3709 221.687C22.8603 229.266 1.3359 248.733 -25.5677 286.051Z" fill="url(#paint0_linear)"/>
<path d="M322.942 588.219L323.01 587.472C322.624 587.438 322.276 587.701 322.205 588.081C322.134 588.461 322.363 588.833 322.735 588.94L322.942 588.219ZM386.928 557.04C379.263 568.651 355.73 590.988 323.022 587.474L322.862 588.965C356.347 592.563 380.35 569.728 388.18 557.866L386.928 557.04ZM322.735 588.94C324.306 589.392 326.731 590.449 328.831 592.131C330.93 593.812 332.63 596.056 332.934 598.88L334.425 598.72C334.064 595.357 332.047 592.785 329.769 590.96C327.491 589.136 324.88 587.996 323.149 587.499L322.735 588.94ZM322.874 588.966C325.673 589.22 331.442 587.24 334.311 578.417L332.885 577.953C330.195 586.225 324.998 587.653 323.01 587.472L322.874 588.966Z" fill="#CCCCE7"/>
<circle cx="120" cy="391" r="7.5" stroke="#CBCBE6"/>
<circle cx="503" cy="958" r="7.5" stroke="#CBCBE6"/>
<circle cx="271" cy="1610" r="7.5" stroke="#CBCBE6"/>
<circle cx="1194" cy="1524" r="7.5" stroke="#CBCBE6"/>
<circle cx="1340" cy="1984" r="7.5" stroke="#CBCBE6"/>
<circle cx="395" cy="493" r="5.5" stroke="#CBCBE6"/>
<circle cx="1211" cy="956" r="5.5" stroke="#CBCBE6"/>
<circle cx="940" cy="1634" r="5.5" stroke="#CBCBE6"/>
<circle cx="665" cy="1515" r="5.5" stroke="#CBCBE6"/>
<path d="M250.809 1497.8L248.695 1504.76M246.458 1512.84L244.763 1520.08M251.418 1510.68L258.384 1512.8M243.341 1508.45L236.795 1506.6" stroke="#CBCBE6" stroke-linecap="round"/>
<path d="M951.809 969.795L949.695 976.762M947.458 984.839L945.763 992.076M952.418 982.684L959.384 984.799M944.341 980.448L937.795 978.604" stroke="#CBCBE6" stroke-linecap="round"/>
<path d="M1261.81 1613.8L1259.7 1620.76M1257.46 1628.84L1255.76 1636.08M1262.42 1626.68L1269.39 1628.8M1254.34 1624.45L1247.8 1622.6" stroke="#CBCBE6" stroke-linecap="round"/>
<defs>
<linearGradient id="paint0_linear" x1="348.5" y1="-579" x2="-316.5" y2="365" gradientUnits="userSpaceOnUse">
<stop stop-color="#F5F5F9" stop-opacity="0.18"/>
<stop offset="1" stop-color="#525298" stop-opacity="0"/>
</linearGradient>
</defs>
</svg>
