<svg width="116" height="45" viewBox="0 0 116 45" fill="none" xmlns="http://www.w3.org/2000/svg">
<path d="M47.48 33.21C45.94 33.21 44.56 32.96 43.34 32.46C42.12 31.96 41.14 31.22 40.4 30.24C39.68 29.26 39.3 28.08 39.26 26.7H44.72C44.8 27.48 45.07 28.08 45.53 28.5C45.99 28.9 46.59 29.1 47.33 29.1C48.09 29.1 48.69 28.93 49.13 28.59C49.57 28.23 49.79 27.74 49.79 27.12C49.79 26.6 49.61 26.17 49.25 25.83C48.91 25.49 48.48 25.21 47.96 24.99C47.46 24.77 46.74 24.52 45.8 24.24C44.44 23.82 43.33 23.4 42.47 22.98C41.61 22.56 40.87 21.94 40.25 21.12C39.63 20.3 39.32 19.23 39.32 17.91C39.32 15.95 40.03 14.42 41.45 13.32C42.87 12.2 44.72 11.64 47 11.64C49.32 11.64 51.19 12.2 52.61 13.32C54.03 14.42 54.79 15.96 54.89 17.94H49.34C49.3 17.26 49.05 16.73 48.59 16.35C48.13 15.95 47.54 15.75 46.82 15.75C46.2 15.75 45.7 15.92 45.32 16.26C44.94 16.58 44.75 17.05 44.75 17.67C44.75 18.35 45.07 18.88 45.71 19.26C46.35 19.64 47.35 20.05 48.71 20.49C50.07 20.95 51.17 21.39 52.01 21.81C52.87 22.23 53.61 22.84 54.23 23.64C54.85 24.44 55.16 25.47 55.16 26.73C55.16 27.93 54.85 29.02 54.23 30C53.63 30.98 52.75 31.76 51.59 32.34C50.43 32.92 49.06 33.21 47.48 33.21ZM63.747 16.05V20.31H70.617V24.27H63.747V28.89H71.517V33H58.617V11.94H71.517V16.05H63.747ZM85.8875 33L81.5075 25.05H80.2775V33H75.1475V11.94H83.7575C85.4175 11.94 86.8275 12.23 87.9875 12.81C89.1675 13.39 90.0475 14.19 90.6275 15.21C91.2075 16.21 91.4975 17.33 91.4975 18.57C91.4975 19.97 91.0975 21.22 90.2975 22.32C89.5175 23.42 88.3575 24.2 86.8175 24.66L91.6775 33H85.8875ZM80.2775 21.42H83.4575C84.3975 21.42 85.0975 21.19 85.5575 20.73C86.0375 20.27 86.2775 19.62 86.2775 18.78C86.2775 17.98 86.0375 17.35 85.5575 16.89C85.0975 16.43 84.3975 16.2 83.4575 16.2H80.2775V21.42ZM114.788 11.94L107.318 33H100.898L93.4278 11.94H98.8878L104.108 27.84L109.358 11.94H114.788Z" fill="#22B07D"/>
<path d="M0 14C0 11.2386 2.23858 9 5 9H23C25.7614 9 28 11.2386 28 14V32C28 34.7614 25.7614 37 23 37H0V14Z" fill="#22B07D"/>
<path d="M14.32 30.14C13.2933 30.14 12.3733 29.9733 11.56 29.64C10.7467 29.3067 10.0933 28.8133 9.6 28.16C9.12 27.5067 8.86667 26.72 8.84 25.8H12.48C12.5333 26.32 12.7133 26.72 13.02 27C13.3267 27.2667 13.7267 27.4 14.22 27.4C14.7267 27.4 15.1267 27.2867 15.42 27.06C15.7133 26.82 15.86 26.4933 15.86 26.08C15.86 25.7333 15.74 25.4467 15.5 25.22C15.2733 24.9933 14.9867 24.8067 14.64 24.66C14.3067 24.5133 13.8267 24.3467 13.2 24.16C12.2933 23.88 11.5533 23.6 10.98 23.32C10.4067 23.04 9.91333 22.6267 9.5 22.08C9.08667 21.5333 8.88 20.82 8.88 19.94C8.88 18.6333 9.35333 17.6133 10.3 16.88C11.2467 16.1333 12.48 15.76 14 15.76C15.5467 15.76 16.7933 16.1333 17.74 16.88C18.6867 17.6133 19.1933 18.64 19.26 19.96H15.56C15.5333 19.5067 15.3667 19.1533 15.06 18.9C14.7533 18.6333 14.36 18.5 13.88 18.5C13.4667 18.5 13.1333 18.6133 12.88 18.84C12.6267 19.0533 12.5 19.3667 12.5 19.78C12.5 20.2333 12.7133 20.5867 13.14 20.84C13.5667 21.0933 14.2333 21.3667 15.14 21.66C16.0467 21.9667 16.78 22.26 17.34 22.54C17.9133 22.82 18.4067 23.2267 18.82 23.76C19.2333 24.2933 19.44 24.98 19.44 25.82C19.44 26.62 19.2333 27.3467 18.82 28C18.42 28.6533 17.8333 29.1733 17.06 29.56C16.2867 29.9467 15.3733 30.14 14.32 30.14Z" fill="white"/>
</svg>
