<svg width="36" height="36" viewBox="0 0 36 36" fill="none" xmlns="http://www.w3.org/2000/svg">
<ellipse cx="18.2476" cy="12.2502" rx="4.98242" ry="5.25023" stroke="#518EF8" stroke-width="2"/>
<path d="M10.1355 17.1838C9.14679 16.8046 8.29737 16.1053 7.70899 15.1861C7.12062 14.2669 6.8235 13.1751 6.86022 12.067C6.89694 10.9589 7.26562 9.89157 7.91341 9.01787C8.5612 8.14417 9.45484 7.509 10.4663 7.20338" stroke="#518EF8" stroke-width="2" stroke-linecap="round"/>
<path d="M26.3469 7.3174C27.3356 7.69661 28.185 8.39593 28.7734 9.31511C29.3618 10.2343 29.6589 11.3262 29.6222 12.4342C29.5854 13.5423 29.2168 14.6097 28.569 15.4834C27.9212 16.3571 27.0275 16.9922 26.0161 17.2979" stroke="#518EF8" stroke-width="2" stroke-linecap="round"/>
<path d="M28.9906 21.8171C29.5839 22.012 30.0936 22.3981 30.4467 22.9199C30.7997 23.4418 30.978 24.0726 30.956 24.7219C30.9339 25.3713 30.7127 26.0059 30.324 26.5348C29.9353 27.0636 29.3991 27.4596 28.7922 27.666" stroke="#518EF8" stroke-width="2" stroke-linecap="round"/>
<path d="M7.01083 21.8171C6.41754 22.012 5.90784 22.3981 5.55479 22.9199C5.20173 23.4418 5.02345 24.0726 5.04548 24.722C5.06752 25.3713 5.28874 26.0059 5.67745 26.5348C6.06615 27.0636 6.60239 27.4596 7.20929 27.666" stroke="#518EF8" stroke-width="2" stroke-linecap="round"/>
<path d="M18.2402 29.0012C19.9767 29.0012 21.7122 28.9803 23.0163 28.6488C23.6774 28.4808 24.3351 28.2085 24.8355 27.7278C25.3698 27.2146 25.6462 26.5392 25.6462 25.7511C25.6462 24.963 25.3698 24.2876 24.8355 23.7744C24.3351 23.2936 23.6774 23.0214 23.0163 22.8533C21.7122 22.5218 19.9767 22.501 18.2402 22.501C16.5037 22.501 14.7682 22.5218 13.4641 22.8533C12.803 23.0214 12.1453 23.2936 11.6449 23.7744C11.1106 24.2876 10.8342 24.963 10.8342 25.7511C10.8342 26.5392 11.1106 27.2146 11.6449 27.7278C12.1453 28.2085 12.803 28.4808 13.4641 28.6488C14.7682 28.9803 16.5037 29.0012 18.2402 29.0012Z" stroke="#518EF8" stroke-width="2"/>
</svg>
