<svg width="36" height="36" viewBox="0 0 36 36" fill="none" xmlns="http://www.w3.org/2000/svg">
<path d="M11 32H25C27.2091 32 29 30.2091 29 28V11.1915C29 11.0682 28.9544 10.9492 28.872 10.8575L22.8633 4.16594C22.7685 4.06033 22.6332 4 22.4913 4H11C8.79086 4 7 5.79086 7 8V28C7 30.2091 8.79086 32 11 32Z" stroke="#FFBF47" stroke-width="2"/>
<path d="M21.1426 4.875V8.64146C21.1426 10.9071 22.8386 12.7436 24.9346 12.75H28.214" stroke="#FFBF47" stroke-width="2" stroke-linecap="round" stroke-linejoin="round"/>
<path d="M14.8574 19.75L17.8515 16.4157C17.9309 16.3272 18.0696 16.3272 18.1491 16.4157L21.1431 19.75" stroke="#FFBF47" stroke-width="2" stroke-linecap="round"/>
<path d="M18 25.876V17.126" stroke="#FFBF47" stroke-width="2" stroke-linecap="round"/>
</svg>
