<svg width="460" height="350" viewBox="0 0 460 350" fill="none" xmlns="http://www.w3.org/2000/svg">
<circle cx="230" cy="175" r="174" stroke="#F4F4FA" stroke-width="2" stroke-linecap="round"/>
<circle cx="230" cy="175" r="110" fill="white" stroke="#F4F4FA" stroke-width="40"/>
<circle r="6.5" transform="matrix(1 0 0 -1 353.5 52.5)" fill="#22B07D"/>
<circle r="6.5" transform="matrix(1 0 0 -1 98.5 58.5)" fill="#22B07D"/>
<circle r="6.5" transform="matrix(1 0 0 -1 281.5 291.5)" fill="#22B07D"/>
<line x1="101" y1="175" x2="359" y2="175" stroke="#22B07D" stroke-width="2" stroke-linecap="round" stroke-linejoin="round" stroke-dasharray="12 12"/>
<circle cx="230" cy="175" r="30" fill="#22B07D"/>
<path d="M230.48 186.21C228.94 186.21 227.56 185.96 226.34 185.46C225.12 184.96 224.14 184.22 223.4 183.24C222.68 182.26 222.3 181.08 222.26 179.7H227.72C227.8 180.48 228.07 181.08 228.53 181.5C228.99 181.9 229.59 182.1 230.33 182.1C231.09 182.1 231.69 181.93 232.13 181.59C232.57 181.23 232.79 180.74 232.79 180.12C232.79 179.6 232.61 179.17 232.25 178.83C231.91 178.49 231.48 178.21 230.96 177.99C230.46 177.77 229.74 177.52 228.8 177.24C227.44 176.82 226.33 176.4 225.47 175.98C224.61 175.56 223.87 174.94 223.25 174.12C222.63 173.3 222.32 172.23 222.32 170.91C222.32 168.95 223.03 167.42 224.45 166.32C225.87 165.2 227.72 164.64 230 164.64C232.32 164.64 234.19 165.2 235.61 166.32C237.03 167.42 237.79 168.96 237.89 170.94H232.34C232.3 170.26 232.05 169.73 231.59 169.35C231.13 168.95 230.54 168.75 229.82 168.75C229.2 168.75 228.7 168.92 228.32 169.26C227.94 169.58 227.75 170.05 227.75 170.67C227.75 171.35 228.07 171.88 228.71 172.26C229.35 172.64 230.35 173.05 231.71 173.49C233.07 173.95 234.17 174.39 235.01 174.81C235.87 175.23 236.61 175.84 237.23 176.64C237.85 177.44 238.16 178.47 238.16 179.73C238.16 180.93 237.85 182.02 237.23 183C236.63 183.98 235.75 184.76 234.59 185.34C233.43 185.92 232.06 186.21 230.48 186.21Z" fill="white"/>
</svg>
