<svg width="74" height="24" viewBox="0 0 74 24" fill="none" xmlns="http://www.w3.org/2000/svg">
<path fill-rule="evenodd" clip-rule="evenodd" d="M0 0L9.43406 0.713821L9.428 0.75189H10.0347L13.0107 18.5119L22.2907 0.75189H27.0587L14.9307 23.0879H9.49071L5.98062 4.66652C4.07915 2.81661 1.45298 0.924064 0 0ZM29.9687 23.0879L33.9047 0.75189H29.4247L25.4567 23.0879H29.9687ZM36.987 21.8079C38.4376 22.8106 40.283 23.3119 42.523 23.3119C44.2083 23.3119 45.6803 23.0346 46.939 22.4799C48.219 21.9039 49.2003 21.1146 49.883 20.1119C50.587 19.1092 50.939 17.9679 50.939 16.6879C50.939 15.5146 50.651 14.5226 50.075 13.7119C49.499 12.9012 48.8056 12.2506 47.995 11.7599C47.1843 11.2692 46.1496 10.7466 44.891 10.1919C43.931 9.74389 43.195 9.38122 42.683 9.10389C42.171 8.80522 41.7336 8.46389 41.371 8.07989C41.0296 7.67456 40.859 7.20522 40.859 6.67189C40.859 5.86122 41.1683 5.22122 41.787 4.75189C42.4056 4.28256 43.2163 4.04789 44.219 4.04789C45.1576 4.04789 45.883 4.27189 46.395 4.71989C46.9283 5.16789 47.195 5.74389 47.195 6.44789L47.163 6.79989H51.931C52.0163 5.51989 51.7603 4.39989 51.163 3.43989C50.587 2.47989 49.7123 1.74389 48.539 1.23189C47.387 0.698557 46.0216 0.43189 44.443 0.43189C42.843 0.43189 41.4136 0.709223 40.155 1.26389C38.9176 1.81856 37.9363 2.60789 37.211 3.63189C36.507 4.65589 36.155 5.86122 36.155 7.24789C36.155 8.46389 36.4323 9.47722 36.987 10.2879C37.563 11.0772 38.2456 11.6959 39.035 12.1439C39.8456 12.5919 40.891 13.0826 42.171 13.6159C43.5576 14.1919 44.571 14.7146 45.211 15.1839C45.8723 15.6532 46.203 16.2826 46.203 17.0719C46.203 17.9252 45.883 18.5866 45.243 19.0559C44.6243 19.5039 43.771 19.7279 42.683 19.7279C41.595 19.7279 40.763 19.4399 40.187 18.8639C39.6323 18.2879 39.3976 17.5519 39.483 16.6559H34.907C34.8643 17.0399 34.843 17.3279 34.843 17.5199C34.843 19.3546 35.5576 20.7839 36.987 21.8079ZM58.7902 18.8319H67.7182L68.4222 23.0879H73.1582L69.0942 0.719889H63.8782L51.8782 23.0879H56.5822L58.7902 18.8319ZM65.5422 5.87189L67.1422 15.3439H60.6142L65.5422 5.87189Z" fill="white"/>
</svg>
